<?xml version="1.0" encoding="UTF-8"?>
<svg version="1.1" xmlns="http://www.w3.org/2000/svg" width="558" height="549">
<path d="M0 0 C184.14 0 368.28 0 558 0 C558 181.17 558 362.34 558 549 C373.86 549 189.72 549 0 549 C0 367.83 0 186.66 0 0 Z " fill="#171717" transform="translate(0,0)"/>
<path d="M0 0 C0.99 0 1.98 0 3 0 C5.81014801 3.70939538 6.76279773 7.56782484 8 12 C8.81496127 14.69327841 9.65706001 17.37786384 10.5 20.0625 C10.81904297 21.0844043 10.81904297 21.0844043 11.14453125 22.12695312 C12.09723883 25.16918806 13.06755869 28.19623054 14.10546875 31.2109375 C14.9000589 33.68839325 15.40694715 35.99994077 15.8125 38.5625 C16.5908046 42.6949268 17.85351395 46.3564295 19.4375 50.25 C21.79113928 56.08564091 23.18105197 61.82519502 24.32421875 68.00390625 C24.93002945 70.68978376 25.69343293 72.60893062 27 75 C28.4736426 79.42092781 29.62192931 83.3355302 29 88 C27.0625 90.125 27.0625 90.125 25 92 C23.41973603 95.68728259 23.44474897 100.05999957 24 104 C25.64119086 107.29527096 25.64119086 107.29527096 28 110 C28.928125 111.1446875 28.928125 111.1446875 29.875 112.3125 C32.53775628 114.42704175 34.65639632 114.69603603 38 115 C41.90191533 125.06179182 45.6300201 135.07965162 45 146 C45.66 146 46.32 146 47 146 C47.69918305 148.58067563 48.38461049 151.16372847 49.0625 153.75 C49.26166016 154.47960937 49.46082031 155.20921875 49.66601562 155.9609375 C50.63744407 159.71031044 51.15449387 162.30274238 50 166 C43 155.62068966 43 155.62068966 43 152 C42.01 151.67 41.02 151.34 40 151 C38.39453125 149.00390625 38.39453125 149.00390625 36.8125 146.5625 C36.28269531 145.75941406 35.75289063 144.95632812 35.20703125 144.12890625 C34 142 34 142 34 140 C33.34 140 32.68 140 32 140 C28 133.25 28 133.25 28 131 C27.34 131 26.68 131 26 131 C26 130.01 26 129.02 26 128 C25.34 128 24.68 128 24 128 C23.34 126.02 22.68 124.04 22 122 C21.34 122 20.68 122 20 122 C19.67 120.68 19.34 119.36 19 118 C18.34 118 17.68 118 17 118 C16.67 116.35 16.34 114.7 16 113 C15.34 113 14.68 113 14 113 C13.67 111.35 13.34 109.7 13 108 C11.515 107.505 11.515 107.505 10 107 C7.67734388 104.41927097 7 103.54823932 7 100 C6.34 100 5.68 100 5 100 C4.67 98.35 4.34 96.7 4 95 C2.515 94.505 2.515 94.505 1 94 C1 93.34 1 92.68 1 92 C0.34 92 -0.32 92 -1 92 C-1.495 89.525 -1.495 89.525 -2 87 C-2.66 87 -3.32 87 -4 87 C-8 81.58823529 -8 81.58823529 -8 79 C-8.66 79 -9.32 79 -10 79 C-10.33 71.08 -10.66 63.16 -11 55 C-11.66 55 -12.32 55 -13 55 C-16.17376578 45.31166237 -13.95650204 36.23183809 -10 27 C-9.34 27 -8.68 27 -8 27 C-7.814375 25.14375 -7.814375 25.14375 -7.625 23.25 C-7.39150358 20.91503578 -7.11012347 19.21979189 -6.0546875 17.11328125 C-4.27398046 13.54527196 -3.66159634 9.64799693 -2.78125 5.77734375 C-2 3 -2 3 0 0 Z " fill="#020202" transform="translate(470,98)"/>
<path d="M0 0 C1.32 0 2.64 0 4 0 C5.82608626 5.82695868 5.82608626 5.82695868 6.57666016 8.25585938 C8.12862729 13.26579325 9.73582108 18.25487024 11.37109375 23.23828125 C11.99820168 25.17752408 12.6228667 27.1175303 13.24612427 29.05801392 C13.8664325 30.97354331 14.50329906 32.88368496 15.14038086 34.79370117 C17.79133105 43.09008022 18.54056812 48.00042046 15.96484375 56.359375 C14.50938048 61.85124449 14.60681592 67.31248764 14.52148438 72.96875 C14.49505859 73.82984375 14.46863281 74.6909375 14.44140625 75.578125 C14.42795166 76.35575195 14.41449707 77.13337891 14.40063477 77.93457031 C13.90318003 80.49914501 12.94361367 81.31768416 11 83 C10.22937976 84.20361088 9.49851923 85.43374072 8.8125 86.6875 C8.214375 87.780625 7.61625 88.87375 7 90 C6.34 90 5.68 90 5 90 C4.8453125 90.804375 4.8453125 90.804375 4.6875 91.625 C3.17721474 96.84234908 0.81103478 100.24532063 -3 104 C-6.74192394 108.43943169 -10.08721004 112.92380699 -12.8359375 118.05078125 C-14.9799344 121.64089686 -17.57792256 124.92166726 -20.09765625 128.25390625 C-22.0444686 131.06419184 -23.49944696 133.93402852 -25 137 C-26.625 138.75 -26.625 138.75 -28 140 C-28.33 140.66 -28.66 141.32 -29 142 C-29.66 142 -30.32 142 -31 142 C-31.33 143.32 -31.66 144.64 -32 146 C-32.66 146 -33.32 146 -34 146 C-34.103125 146.556875 -34.20625 147.11375 -34.3125 147.6875 C-35.14178408 150.4769101 -36.34299056 152.6139064 -38 155 C-38.66 155 -39.32 155 -40 155 C-40.33 156.65 -40.66 158.3 -41 160 C-41.66 160 -42.32 160 -43 160 C-43 160.99 -43 161.98 -43 163 C-43.66 163 -44.32 163 -45 163 C-45.495 164.98 -45.495 164.98 -46 167 C-46.66 166.67 -47.32 166.34 -48 166 C-47.67 164.02 -47.34 162.04 -47 160 C-46.34 160 -45.68 160 -45 160 C-44.896875 158.700625 -44.79375 157.40125 -44.6875 156.0625 C-44.23314191 151.94767955 -43.2218595 148.40664905 -41.82421875 144.52734375 C-40.49787249 140.46030095 -39.64904583 136.29134767 -38.74609375 132.11328125 C-38 129 -38 129 -37.0625 126.1953125 C-35.41167363 121.23069496 -34.20712777 116.15117871 -32.94335938 111.07617188 C-29.79783061 98.79783061 -29.79783061 98.79783061 -26.1875 95.1875 C-24 94 -24 94 -20.8125 93 C-19.884375 92.67 -18.95625 92.34 -18 92 C-17.505 90.515 -17.505 90.515 -17 89 C-16.34 89 -15.68 89 -15 89 C-12.91613111 83.72086547 -12.42089996 78.60461531 -12 73 C-12.66 73 -13.32 73 -14 73 C-14.474375 72.030625 -14.94875 71.06125 -15.4375 70.0625 C-16.70193947 67.19522563 -16.70193947 67.19522563 -18 66 C-17.94921875 63.92578125 -17.94921875 63.92578125 -17.6875 61.3125 C-17.60886719 60.46300781 -17.53023437 59.61351562 -17.44921875 58.73828125 C-16.94550757 55.66783311 -16.01552522 52.94025713 -15 50 C-14.31661262 47.52539023 -13.65071707 45.04590071 -13 42.5625 C-9.30168319 28.47711372 -9.30168319 28.47711372 -7 24 C-6.56400664 21.95418499 -6.12981004 19.90796168 -5.70703125 17.859375 C-4.20668539 11.79167793 -2.03815724 5.90443263 0 0 Z " fill="#010101" transform="translate(86,98)"/>
<path d="M0 0 C1.31390752 3.94172255 0.29816194 5.22515286 -1.3125 9 C-3.72022038 14.95910793 -5.14652097 20.64349202 -6 27 C-6.66 27 -7.32 27 -8 27 C-8 29.64 -8 32.28 -8 35 C-8.66 35 -9.32 35 -10 35 C-10.0825 36.155 -10.165 37.31 -10.25 38.5 C-11.20809198 47.13651484 -13.39834235 56.20957777 -16.5625 64.3125 C-18.14713407 68.37743088 -19.07008751 72.41548556 -19.9609375 76.6796875 C-21 79 -21 79 -23.4140625 80.3203125 C-26 81 -26 81 -29 81 C-29.495 82.485 -29.495 82.485 -30 84 C-30.66 84 -31.32 84 -32 84 C-32.33 85.32 -32.66 86.64 -33 88 C-33.66 88 -34.32 88 -35 88 C-34.71072561 97.27702957 -34.71072561 97.27702957 -30 105 C-30.13744418 107.88632773 -30.40491104 110.22472148 -31 113 C-31.2784375 114.7325 -31.2784375 114.7325 -31.5625 116.5 C-31.706875 117.325 -31.85125 118.15 -32 119 C-32.66 119 -33.32 119 -34 119 C-34.0825 120.175625 -34.165 121.35125 -34.25 122.5625 C-35.00038171 129.55112966 -37.09003144 136.25736681 -39 143 C-39.66 143 -40.32 143 -41 143 C-41.02578125 143.78503906 -41.0515625 144.57007813 -41.078125 145.37890625 C-41.44052154 152.0914785 -42.15181905 156.46823989 -46 162 C-46.33 162.66 -46.66 163.32 -47 164 C-47.99 164 -48.98 164 -50 164 C-50.84080019 161.58570231 -51.67281402 159.16896007 -52.5 156.75 C-52.73847656 156.06808594 -52.97695313 155.38617188 -53.22265625 154.68359375 C-54.39421287 151.23586997 -55 148.68297096 -55 145 C-55.66 145 -56.32 145 -57 145 C-57.21148682 144.17592651 -57.21148682 144.17592651 -57.42724609 143.33520508 C-58.07307317 140.82674079 -58.72398903 138.31962371 -59.375 135.8125 C-59.59671875 134.94818359 -59.8184375 134.08386719 -60.046875 133.19335938 C-60.94264261 129.75519252 -61.82441613 126.43776523 -63.1484375 123.13671875 C-64.82011022 118.9422005 -64.56529385 114.58282279 -63.0625 110.375 C-62.5365625 109.199375 -62.5365625 109.199375 -62 108 C-61.30443932 104.71407541 -61 101.73690363 -61 98.37109375 C-61 87.27453665 -57.94207771 81.46399475 -51 73 C-50.505 72.01 -50.505 72.01 -50 71 C-49.34 71 -48.68 71 -48 71 C-47.73058594 70.27296875 -47.46117187 69.5459375 -47.18359375 68.796875 C-46.02364944 66.05588448 -44.69868973 63.73134626 -43.0625 61.25 C-42.55847656 60.47140625 -42.05445313 59.6928125 -41.53515625 58.890625 C-40 57 -40 57 -37 56 C-36.28340982 54.01733942 -35.62387939 52.01375742 -35 50 C-33.9988013 48.21422078 -32.93329405 46.4632504 -31.8125 44.75 C-31.18988281 43.79738281 -30.56726563 42.84476562 -29.92578125 41.86328125 C-27.58193916 38.3784207 -25.20070279 34.92449445 -22.76953125 31.5 C-21.52329679 29.73931555 -20.29292257 27.96735142 -19.07421875 26.1875 C-18.45160156 25.28 -17.82898438 24.3725 -17.1875 23.4375 C-16.62417969 22.61121094 -16.06085938 21.78492188 -15.48046875 20.93359375 C-14 19 -14 19 -12 18 C-11.690625 17.21625 -11.38125 16.4325 -11.0625 15.625 C-10 13 -10 13 -8.55859375 11.58984375 C-6.33443826 9.32109366 -5.34640557 6.71258245 -4.0625 3.83984375 C-3 2 -3 2 0 0 Z " fill="#010101" transform="translate(520,295)"/>
<path d="M0 0 C5.68261997 0.21983056 10.76562958 0.72006204 16.0625 2.875 C21.74810494 5.14432647 27.42225875 6.04771301 33.45532227 6.87255859 C37.9588474 7.52152735 41.82075364 8.62435618 46.0378418 10.31567383 C49.2660189 11.44153925 52.41171882 11.70760592 55.8125 12.0625 C62.67837999 12.78558666 62.67837999 12.78558666 66 15 C66.2165625 15.93779297 66.2165625 15.93779297 66.4375 16.89453125 C67.21043827 19.78768214 68.71287638 20.80470717 71 22.6875 C72.0828125 23.59048828 72.0828125 23.59048828 73.1875 24.51171875 C73.785625 25.00285156 74.38375 25.49398437 75 26 C75.33 26.33 75.66 26.66 76 27 C81.20256378 27.5490595 86.17285547 27.98259886 90.625 24.9375 C95.12798884 22.35245085 98.07298642 22.86159575 103 24 C105.00431449 24.65358081 107.0040278 25.32136945 109 26 C111.89558985 26.56201322 114.79602059 27.05980903 117.70703125 27.53515625 C120 28 120 28 121 29 C122.84599688 29.39454223 124.70225822 29.74176866 126.5625 30.0625 C128.08037109 30.32740234 128.08037109 30.32740234 129.62890625 30.59765625 C130.80259766 30.79681641 130.80259766 30.79681641 132 31 C132 31.66 132 32.32 132 33 C132.85980469 33.03738281 133.71960938 33.07476562 134.60546875 33.11328125 C143.04544469 33.58268013 150.81154167 34.83726765 159 37 C159.33 38.65 159.66 40.3 160 42 C158.948125 42.391875 157.89625 42.78375 156.8125 43.1875 C154.14018724 44.18605103 151.47759287 45.20408534 148.8203125 46.2421875 C143.25163574 48.41564333 137.76481537 50.42777763 132 52 C131.67 52.33 131.34 52.66 131 53 C129.00041636 53.04080783 126.99954746 53.04254356 125 53 C125 53.66 125 54.32 125 55 C117.82140651 57.04061541 111.47394574 58.37369729 104 58 C104 57.34 104 56.68 104 56 C103.37996094 56.01160156 102.75992188 56.02320313 102.12109375 56.03515625 C96.40328928 56.09341627 90.70855188 55.95189701 85 55.625 C83.741875 55.55539063 82.48375 55.48578125 81.1875 55.4140625 C78 55 78 55 75 53 C75 52.34 75 51.68 75 51 C74.278125 50.9175 73.55625 50.835 72.8125 50.75 C69.41073132 49.84286169 67.54533916 48.39989121 65 46 C65 45.34 65 44.68 65 44 C63.96875 43.773125 62.9375 43.54625 61.875 43.3125 C57.63222891 42.11138965 55.1409634 40.06435454 52 37 C52 36.34 52 35.68 52 35 C51.21625 34.71125 50.4325 34.4225 49.625 34.125 C47 33 47 33 45 31 C44.236875 30.71125 43.47375 30.4225 42.6875 30.125 C39.61332207 28.83813482 37.45366179 27.24334792 35 25 C35 24.34 35 23.68 35 23 C34.31035156 22.92394531 33.62070312 22.84789063 32.91015625 22.76953125 C29.21566476 21.7925986 26.49535682 19.88676411 23.4375 17.6875 C22.87353516 17.29626953 22.30957031 16.90503906 21.72851562 16.50195312 C18.51189856 14.23339162 15.75760677 11.7933425 13 9 C11.28421571 7.98323894 9.56657761 6.96807589 7.81640625 6.01171875 C5.08980602 4.49303174 2.5481245 2.80233196 0 1 C0 0.67 0 0.34 0 0 Z " fill="#010101" transform="translate(296,42)"/>
<path d="M0 0 C1.08144287 0.4228125 2.16288574 0.845625 3.27709961 1.28125 C4.41542236 1.72984375 5.55374512 2.1784375 6.7265625 2.640625 C15.31537661 5.99398383 23.89025875 9.20466103 32.69140625 11.953125 C35.3515625 12.890625 35.3515625 12.890625 38.3515625 14.890625 C38.3515625 15.550625 38.3515625 16.210625 38.3515625 16.890625 C35.47737529 18.4625489 32.87318644 19.32190889 29.6640625 19.953125 C26.72390131 20.36775772 26.72390131 20.36775772 24.3515625 21.890625 C22.60698295 22.19442247 20.85528007 22.45751272 19.1015625 22.703125 C14.42120981 23.43303715 10.09783095 24.52912503 5.6015625 26.015625 C0.57471419 27.64889701 -3.39266759 28.30284225 -8.6484375 27.890625 C-8.6484375 28.550625 -8.6484375 29.210625 -8.6484375 29.890625 C-10.20810342 30.25707078 -11.77136401 30.60823362 -13.3359375 30.953125 C-14.64111328 31.24896484 -14.64111328 31.24896484 -15.97265625 31.55078125 C-18.8556515 31.91694269 -20.8711591 31.71860408 -23.6484375 30.890625 C-24.3084375 30.230625 -24.9684375 29.570625 -25.6484375 28.890625 C-28.68111253 27.85571646 -31.52295368 27.75600816 -34.7109375 27.765625 C-35.56816406 27.76304687 -36.42539062 27.76046875 -37.30859375 27.7578125 C-39.80407951 27.79697365 -39.80407951 27.79697365 -42.6484375 28.890625 C-42.6484375 29.550625 -42.6484375 30.210625 -42.6484375 30.890625 C-43.98177083 32.22395833 -45.31510417 33.55729167 -46.6484375 34.890625 C-46.9990625 35.756875 -47.3496875 36.623125 -47.7109375 37.515625 C-50.97342158 41.51479903 -55.72823486 41.31571002 -60.6484375 41.890625 C-61.4734375 42.00148438 -62.2984375 42.11234375 -63.1484375 42.2265625 C-64.97917077 42.46848082 -66.81351025 42.68289739 -68.6484375 42.890625 C-68.6484375 43.550625 -68.6484375 44.210625 -68.6484375 44.890625 C-69.53917969 45.02597656 -70.42992187 45.16132813 -71.34765625 45.30078125 C-82.66769841 47.12331246 -93.74814654 49.78097062 -104.84448242 52.64086914 C-106.05467041 52.94500732 -107.2648584 53.24914551 -108.51171875 53.5625 C-109.59751221 53.8419043 -110.68330566 54.12130859 -111.80200195 54.40917969 C-114.54616007 54.87332582 -116.06421807 54.82267696 -118.6484375 53.890625 C-116.89928305 52.45209625 -115.14907955 51.01484302 -113.3984375 49.578125 C-112.42390625 48.77761719 -111.449375 47.97710937 -110.4453125 47.15234375 C-103.93859294 41.890625 -103.93859294 41.890625 -101.6484375 41.890625 C-101.6484375 41.230625 -101.6484375 40.570625 -101.6484375 39.890625 C-99.01363594 38.15165597 -96.35160217 36.51894081 -93.6484375 34.890625 C-81.31733571 27.20412919 -68.92021527 19.20533274 -57.50634766 10.20068359 C-55.6484375 8.890625 -55.6484375 8.890625 -53.6484375 8.890625 C-53.6484375 8.230625 -53.6484375 7.570625 -53.6484375 6.890625 C-45.39382651 1.43237115 -38.57400773 -0.05781899 -28.7734375 -0.359375 C-26.40072485 -0.4616471 -24.02829458 -0.57075508 -21.65625 -0.6875 C-20.10381592 -0.74019043 -20.10381592 -0.74019043 -18.52001953 -0.79394531 C-15.63023822 -0.97178544 -15.63023822 -0.97178544 -13.08544922 -2.19824219 C-8.45677788 -3.92877729 -4.39571004 -1.73485975 0 0 Z " fill="#010101" transform="translate(417.6484375,458.109375)"/>
<path d="M0 0 C0 0.66 0 1.32 0 2 C-0.66 2 -1.32 2 -2 2 C-2 2.66 -2 3.32 -2 4 C-4.31 4.66 -6.62 5.32 -9 6 C-9 6.66 -9 7.32 -9 8 C-10.32 8.33 -11.64 8.66 -13 9 C-13 9.66 -13 10.32 -13 11 C-13.99 11 -14.98 11 -16 11 C-16.33 11.99 -16.66 12.98 -17 14 C-19.43359375 15.82421875 -19.43359375 15.82421875 -22.4375 17.6875 C-23.42621094 18.31011719 -24.41492188 18.93273437 -25.43359375 19.57421875 C-28 21 -28 21 -30 21 C-30 21.66 -30 22.32 -30 23 C-31.32 23.33 -32.64 23.66 -34 24 C-34 24.66 -34 25.32 -34 26 C-35.65 26.33 -37.3 26.66 -39 27 C-39 27.66 -39 28.32 -39 29 C-39.66 29 -40.32 29 -41 29 C-41 29.66 -41 30.32 -41 31 C-42.65 31.33 -44.3 31.66 -46 32 C-46 32.66 -46 33.32 -46 34 C-47.3894043 35.20507813 -47.3894043 35.20507813 -49.32421875 36.53125 C-50.02353516 37.01207031 -50.72285156 37.49289063 -51.44335938 37.98828125 C-52.18392578 38.48714844 -52.92449219 38.98601562 -53.6875 39.5 C-54.40873047 39.99886719 -55.12996094 40.49773437 -55.87304688 41.01171875 C-59.46998754 43.46223723 -62.83335916 45.61933795 -67 47 C-67 47.66 -67 48.32 -67 49 C-68.93359375 50.47265625 -68.93359375 50.47265625 -71.4375 52.0625 C-74.3718143 53.83678892 -74.3718143 53.83678892 -77 56 C-78.96294592 56.14615679 -80.93079466 56.22739691 -82.8984375 56.28125 C-84.70054687 56.33732422 -84.70054687 56.33732422 -86.5390625 56.39453125 C-87.80492187 56.42933594 -89.07078125 56.46414062 -90.375 56.5 C-92.86209638 56.56880287 -95.34908807 56.64153519 -97.8359375 56.71875 C-98.94501465 56.74904297 -100.0540918 56.77933594 -101.19677734 56.81054688 C-104.0816072 56.88745901 -104.0816072 56.88745901 -107 58 C-108.39439664 58.06665376 -109.79169875 58.08538199 -111.1875 58.0625 C-112.445625 58.041875 -113.70375 58.02125 -115 58 C-115 57.34 -115 56.68 -115 56 C-116.423125 55.8453125 -116.423125 55.8453125 -117.875 55.6875 C-122.73491554 55.0089081 -127.33803874 53.4914524 -132 52 C-132 51.34 -132 50.68 -132 50 C-133.2375 49.814375 -133.2375 49.814375 -134.5 49.625 C-138.39772067 48.92897845 -142.16739669 47.99119051 -146 47 C-146 46.34 -146 45.68 -146 45 C-149.63 44.34 -153.26 43.68 -157 43 C-157.33 41.68 -157.66 40.36 -158 39 C-157.01 39 -156.02 39 -155 39 C-155 38.34 -155 37.68 -155 37 C-154.27554688 36.87882812 -153.55109375 36.75765625 -152.8046875 36.6328125 C-151.35449219 36.38144531 -151.35449219 36.38144531 -149.875 36.125 C-148.92367187 35.96257812 -147.97234375 35.80015625 -146.9921875 35.6328125 C-143.88687173 34.9760747 -141.00919446 34.00555691 -138 33 C-135.28327475 32.29904555 -132.5489774 31.68119789 -129.8125 31.0625 C-123.8899832 29.70388398 -118.02937414 28.2362988 -112.19921875 26.515625 C-110 26 -110 26 -106 26 C-106 25.34 -106 24.68 -106 24 C-103.36 24 -100.72 24 -98 24 C-98 23.34 -98 22.68 -98 22 C-96.02 22 -94.04 22 -92 22 C-91.773125 22.804375 -91.54625 23.60875 -91.3125 24.4375 C-90.27802377 27.15296153 -90.27802377 27.15296153 -87.9375 27.8125 C-79.17139364 28.62338758 -79.17139364 28.62338758 -71 26 C-68.6502478 23.55987272 -67.94280848 21.80138139 -66.9921875 18.5 C-65.98165881 16.11989825 -65.44911202 15.21422632 -63.08935547 14.08862305 C-60.64845343 13.47436836 -58.24088799 13.04847087 -55.75 12.6875 C-54.07775457 12.40190012 -52.40587107 12.11417215 -50.734375 11.82421875 C-49.92291016 11.69088135 -49.11144531 11.55754395 -48.27539062 11.42016602 C-45.11670889 10.83689442 -42.08182175 9.89944571 -39 9 C-36.00935961 8.34856295 -33.00365295 7.77558492 -30 7.1875 C-22.44648103 5.66942692 -15.32783297 3.61290526 -8.1015625 0.953125 C-5.18619044 0.05721721 -3.02048199 -0.203628 0 0 Z " fill="#010101" transform="translate(262,42)"/>
<path d="M0 0 C0.33 0 0.66 0 1 0 C1.02312269 11.19573244 1.04091471 22.39145924 1.05181217 33.58721066 C1.05704116 38.78528115 1.0641391 43.98333536 1.07543945 49.18139648 C1.08626776 54.19342268 1.09227671 59.20543318 1.09487724 64.21747017 C1.09673159 66.13412282 1.1003524 68.05077457 1.10573006 69.96742058 C1.11293975 72.64228072 1.11399097 75.31707514 1.11352539 77.99194336 C1.11712067 78.7925116 1.12071594 79.59307983 1.12442017 80.41790771 C1.11405216 85.88594784 1.11405216 85.88594784 0 87 C-1.62579218 87.12281952 -3.25677004 87.17782504 -4.88696289 87.20532227 C-5.92796646 87.22526749 -6.96897003 87.24521271 -8.04151917 87.26576233 C-9.1737944 87.28247482 -10.30606964 87.29918732 -11.47265625 87.31640625 C-12.62543564 87.33718735 -13.77821503 87.35796844 -14.96592712 87.37937927 C-18.66472157 87.44499964 -22.36358959 87.50381755 -26.0625 87.5625 C-28.56315879 87.60567335 -31.06381001 87.64928724 -33.56445312 87.69335938 C-39.70955662 87.80069368 -45.85473404 87.90243643 -52 88 C-55.015625 81.265625 -55.015625 81.265625 -54.875 78.875 C-53.73816596 76.43892705 -52.53501303 74.21041876 -51 72 C-50.34 72 -49.68 72 -49 72 C-48.72220703 71.42475586 -48.44441406 70.84951172 -48.15820312 70.25683594 C-46.19463119 66.43068522 -43.82110938 62.86661229 -41.5 59.25 C-41.00113281 58.45722656 -40.50226562 57.66445312 -39.98828125 56.84765625 C-39.50746094 56.09871094 -39.02664062 55.34976563 -38.53125 54.578125 C-38.09361328 53.89137695 -37.65597656 53.20462891 -37.20507812 52.49707031 C-36.80740234 52.00303711 -36.40972656 51.50900391 -36 51 C-35.34 51 -34.68 51 -34 51 C-33.9175 50.45472656 -33.835 49.90945312 -33.75 49.34765625 C-32.74430154 46.19961057 -30.99858249 44.06063952 -29 41.4375 C-25.97792356 37.49706579 -25.97792356 37.49706579 -24 33 C-22.66666667 31.66666667 -21.33333333 30.33333333 -20 29 C-18.76487921 26.86690808 -18.76487921 26.86690808 -18 25 C-17.34 25 -16.68 25 -16 25 C-15.62101562 23.94232422 -15.62101562 23.94232422 -15.234375 22.86328125 C-11.72892109 14.73195936 -5.73899188 6.75175515 0 0 Z " fill="#010101" transform="translate(99,189)"/>
<path d="M0 0 C17.49 0 34.98 0 53 0 C53.495 2.475 53.495 2.475 54 5 C54.66 5 55.32 5 56 5 C55.48410916 9.57645099 53.71279596 12.05611085 50.875 15.625 C47.02277105 20.57698809 43.63216484 25.62275956 40.41015625 31.015625 C39.94480469 31.67046875 39.47945313 32.3253125 39 33 C38.34 33 37.68 33 37 33 C36.9175 33.556875 36.835 34.11375 36.75 34.6875 C35.7723543 37.70190759 34.00690996 39.56738186 32 42 C31.29114106 43.31138904 30.60543548 44.63777017 30 46 C29.34 46 28.68 46 28 46 C27.67 47.65 27.34 49.3 27 51 C26.34 51 25.68 51 25 51 C24.7525 51.515625 24.505 52.03125 24.25 52.5625 C20.97218648 58.95423637 17.17529183 64.55767429 12.90625 70.33203125 C10.67651344 73.45274861 8.8031261 76.61913857 7 80 C6.34 80 5.68 80 5 80 C4.5978125 81.1446875 4.5978125 81.1446875 4.1875 82.3125 C3 85 3 85 0 88 C0 58.96 0 29.92 0 0 Z " fill="#010101" transform="translate(460,282)"/>
<path d="M0 0 C0.99 0.33 1.98 0.66 3 1 C3 1.66 3 2.32 3 3 C3.99 3.33 4.98 3.66 6 4 C6 4.99 6 5.98 6 7 C6.66 7 7.32 7 8 7 C20 22.81818182 20 22.81818182 20 28 C21.32 28.66 22.64 29.32 24 30 C24 30.99 24 31.98 24 33 C24.66 33 25.32 33 26 33 C30 39.75 30 39.75 30 42 C30.66 42 31.32 42 32 42 C32.33 42.99 32.66 43.98 33 45 C33.5775 45.53625 34.155 46.0725 34.75 46.625 C37.93769244 49.98978647 42 55.18807577 42 60 C42.99 60.33 43.98 60.66 45 61 C45 61.99 45 62.98 45 64 C45.66 64 46.32 64 47 64 C47.33 64.99 47.66 65.98 48 67 C49.31200404 68.35432675 50.64631404 69.68733482 52 71 C54.45811625 74.68717438 54.31118164 76.64345704 54 81 C53.34 81.99 52.68 82.98 52 84 C49.74740601 84.36076355 49.74740601 84.36076355 46.90771484 84.34057617 C45.84676605 84.34034958 44.78581726 84.34012299 43.69271851 84.33988953 C41.96923691 84.31666374 41.96923691 84.31666374 40.2109375 84.29296875 C39.03737701 84.28872391 37.86381653 84.28447906 36.6546936 84.28010559 C32.89456546 84.26326976 29.13496703 84.22560777 25.375 84.1875 C22.83073689 84.17245954 20.2864654 84.15877003 17.7421875 84.14648438 C11.49460995 84.11335017 5.24734281 84.06310206 -1 84 C-1.02316284 73.63838296 -1.04093524 63.27677208 -1.05181217 52.91513443 C-1.05703235 48.10389543 -1.06411435 43.29267413 -1.07543945 38.48144531 C-1.08629899 33.83898494 -1.09228336 29.19654161 -1.09487724 24.55406952 C-1.09672595 22.78224164 -1.10033595 21.01041469 -1.10573006 19.23859406 C-1.11298114 16.758326 -1.11398922 14.2781285 -1.11352539 11.79785156 C-1.11712067 11.06417358 -1.12071594 10.33049561 -1.12442017 9.57458496 C-1.11766379 6.23916479 -1.03905634 3.18867392 0 0 Z " fill="#010101" transform="translate(461,191)"/>
<path d="M0 0 C2.88280217 1.34750829 5.48114649 3.04911348 8.125 4.8125 C8.82753906 5.26431641 9.53007812 5.71613281 10.25390625 6.18164062 C12.95526491 7.93062993 15.60591751 9.70408501 18.1796875 11.63671875 C20.02963375 13.12511562 20.02963375 13.12511562 22.56347656 14.15625 C25 16 25 16 25.71044922 19.09106445 C25.88237041 25.97281131 25.88237041 25.97281131 25.87158203 29.14135742 C25.8749778 31.29840007 25.95272581 33.44432491 26.03515625 35.59960938 C26.20503427 45.57512307 26.20503427 45.57512307 23.13452148 49.20581055 C20.81721294 50.77015745 18.57156237 51.91279818 16 53 C14.47826172 53.88751953 14.47826172 53.88751953 12.92578125 54.79296875 C10.28691488 56.20115304 7.64418448 57.60183091 5 59 C3.88625 59.639375 2.7725 60.27875 1.625 60.9375 C-1.40846802 62.16533229 -2.92476763 61.99492812 -6 61 C-6 60.34 -6 59.68 -6 59 C-6.57363281 58.89171875 -7.14726562 58.7834375 -7.73828125 58.671875 C-10.30933984 57.9081063 -12.00035502 56.79574181 -14.1875 55.25 C-18.63913014 52.18857994 -23.23765639 49.54441999 -28 47 C-28 46.34 -28 45.68 -28 45 C-28.66 45 -29.32 45 -30 45 C-30.12366555 40.92512506 -30.21436476 36.85097699 -30.2746582 32.7746582 C-30.29979219 31.38839696 -30.33390592 30.00226813 -30.37719727 28.61645508 C-30.43788396 26.62378963 -30.46354879 24.63015467 -30.48828125 22.63671875 C-30.51446533 21.43748779 -30.54064941 20.23825684 -30.56762695 19.00268555 C-30 16 -30 16 -27.59448242 14.08520508 C-25 13 -25 13 -23 13 C-23 12.34 -23 11.68 -23 11 C-21.171875 9.4921875 -21.171875 9.4921875 -18.75 7.875 C-17.96109375 7.33617187 -17.1721875 6.79734375 -16.359375 6.2421875 C-14 5 -14 5 -10 5 C-9.67 4.01 -9.34 3.02 -9 2 C-5.410126 -0.39324933 -4.23967402 -0.54367585 0 0 Z " fill="#242424" transform="translate(282,337)"/>
<path d="M0 0 C0.83660156 0.32484375 1.67320312 0.6496875 2.53515625 0.984375 C4.9375 2.25 4.9375 2.25 6.73095703 4.15698242 C9.20454621 6.50330683 11.57635466 7.54806042 14.64453125 9.00390625 C18.39555083 11.34010587 19.71515656 12.38557445 20.82958984 16.71826172 C21.15728295 20.88968877 20.89899908 25.02017603 20.625 29.1875 C20.56975791 30.64890426 20.51957895 32.1105092 20.47460938 33.57226562 C20.35401085 37.13571349 20.16464731 40.69157063 19.9375 44.25 C13.1875 47.25 13.1875 47.25 10.9375 47.25 C10.9375 47.91 10.9375 48.57 10.9375 49.25 C10.15375 49.600625 9.37 49.95125 8.5625 50.3125 C4.48912387 52.30564841 0.9962124 55.08197774 -2.59765625 57.82421875 C-5.4213472 59.45757406 -6.85599735 59.74774142 -10.0625 59.25 C-11.73046875 58.1484375 -11.73046875 58.1484375 -13.25 56.625 C-19.37641763 50.97908571 -26.44282113 47.47709906 -34.0625 44.25 C-34.08719081 39.8717488 -34.10535557 35.49353433 -34.11743164 31.11523438 C-34.12246514 29.62531834 -34.12929242 28.13540726 -34.13793945 26.64550781 C-34.15004805 24.50584696 -34.15573807 22.36625132 -34.16015625 20.2265625 C-34.16539307 18.93830566 -34.17062988 17.65004883 -34.17602539 16.32275391 C-34.0625 13.25 -34.0625 13.25 -33.0625 11.25 C-30.7693617 10.40771266 -28.44755043 9.78067061 -26.09375 9.12890625 C-25.4234375 8.83886719 -24.753125 8.54882812 -24.0625 8.25 C-23.7325 7.26 -23.4025 6.27 -23.0625 5.25 C-20.8828125 3.6796875 -20.8828125 3.6796875 -18.1875 2.125 C-16.86105469 1.34769531 -16.86105469 1.34769531 -15.5078125 0.5546875 C-9.94300672 -2.41439418 -5.76742414 -2.31766658 0 0 Z " fill="#303030" transform="translate(369.0625,292.75)"/>
<path d="M0 0 C5.74648266 2.37947645 10.86906352 5.50659644 16 9 C20.455 11.475 20.455 11.475 25 14 C25 24.56 25 35.12 25 46 C21.7 47.65 18.4 49.3 15 51 C11.92337087 52.95672368 8.91238652 54.95467159 5.92773438 57.04492188 C2.4846892 59.35973756 0.171422 60.64778055 -4 60 C-7.3125 58.5 -7.3125 58.5 -10 57 C-10 56.34 -10 55.68 -10 55 C-10.51175781 54.91492188 -11.02351563 54.82984375 -11.55078125 54.7421875 C-15.0271651 53.68873785 -18.05064227 51.91657279 -21.1875 50.125 C-22.14946289 49.59712891 -22.14946289 49.59712891 -23.13085938 49.05859375 C-27.87976959 46.36069122 -27.87976959 46.36069122 -29 43 C-29.09501685 40.88578554 -29.13072699 38.76869123 -29.1328125 36.65234375 C-29.13410156 35.40775391 -29.13539063 34.16316406 -29.13671875 32.88085938 C-29.13285156 31.57955078 -29.12898437 30.27824219 -29.125 28.9375 C-29.12886719 27.63232422 -29.13273438 26.32714844 -29.13671875 24.98242188 C-29.13542969 23.73912109 -29.13414062 22.49582031 -29.1328125 21.21484375 C-29.13168457 20.07136475 -29.13055664 18.92788574 -29.12939453 17.74975586 C-29 15 -29 15 -28 13 C-21.90971272 9.20793434 -21.90971272 9.20793434 -18.8125 8.5 C-16.80975621 8.10797621 -16.80975621 8.10797621 -15.1875 6.1875 C-10.88716568 1.88716568 -6.22741701 -1.09895594 0 0 Z " fill="#232323" transform="translate(199,291)"/>
<path d="M0 0 C25.08 0 50.16 0 76 0 C76.2475 7.693125 76.495 15.38625 76.75 23.3125 C76.83862305 25.73891846 76.92724609 28.16533691 77.01855469 30.6652832 C77.07127538 32.58540558 77.12248591 34.50557029 77.171875 36.42578125 C77.21393066 37.4252478 77.25598633 38.42471436 77.29931641 39.45446777 C77.32010254 40.40833374 77.34088867 41.36219971 77.36230469 42.3449707 C77.38895203 43.17325882 77.41559937 44.00154694 77.4430542 44.85493469 C77 47 77 47 75.15704346 48.73234558 C72.29421585 50.41477625 70.3332759 50.93333448 67 51 C63.625 49.1875 63.625 49.1875 61 47 C61 46.34 61 45.68 61 45 C60.3090625 44.76539063 59.618125 44.53078125 58.90625 44.2890625 C55.42197957 42.74361997 52.53616604 40.64041421 49.5 38.375 C43.64152434 34.07491339 37.62970951 30.24975924 31.3515625 26.59375 C30.57554687 26.0678125 29.79953125 25.541875 29 25 C29 24.34 29 23.68 29 23 C28.42024414 22.71769531 27.84048828 22.43539063 27.24316406 22.14453125 C23.62308925 20.29745781 20.2047582 18.13633458 16.75 16 C16.00492188 15.54882812 15.25984375 15.09765625 14.4921875 14.6328125 C13.43644531 13.97925781 13.43644531 13.97925781 12.359375 13.3125 C11.71452148 12.91675781 11.06966797 12.52101563 10.40527344 12.11328125 C9.9415332 11.74589844 9.47779297 11.37851562 9 11 C9 10.34 9 9.68 9 9 C7.02 8.34 5.04 7.68 3 7 C3 6.34 3 5.68 3 5 C2.34 5 1.68 5 1 5 C1 4.34 1 3.68 1 3 C0.34 3 -0.32 3 -1 3 C-0.67 2.01 -0.34 1.02 0 0 Z " fill="#010101" transform="translate(201,459)"/>
<path d="M0 0 C0.515625 0.2475 1.03125 0.495 1.5625 0.75 C1.5625 1.41 1.5625 2.07 1.5625 2.75 C2.8825 3.08 4.2025 3.41 5.5625 3.75 C5.5625 4.41 5.5625 5.07 5.5625 5.75 C6.2225 5.75 6.8825 5.75 7.5625 5.75 C7.5625 6.41 7.5625 7.07 7.5625 7.75 C8.67625 8.183125 8.67625 8.183125 9.8125 8.625 C12.12989797 9.57302644 14.34167115 10.59845911 16.5625 11.75 C16.5625 12.41 16.5625 13.07 16.5625 13.75 C17.8825 14.08 19.2025 14.41 20.5625 14.75 C20.5625 15.41 20.5625 16.07 20.5625 16.75 C21.8825 17.08 23.2025 17.41 24.5625 17.75 C24.5625 18.41 24.5625 19.07 24.5625 19.75 C25.8825 20.08 27.2025 20.41 28.5625 20.75 C28.5625 21.41 28.5625 22.07 28.5625 22.75 C29.305 22.853125 30.0475 22.95625 30.8125 23.0625 C33.7598519 23.79933797 35.34633074 24.69799142 37.5625 26.75 C37.5625 27.41 37.5625 28.07 37.5625 28.75 C39.2125 29.08 40.8625 29.41 42.5625 29.75 C42.5625 30.41 42.5625 31.07 42.5625 31.75 C43.18125 31.894375 43.8 32.03875 44.4375 32.1875 C46.5625 32.75 46.5625 32.75 48.5625 33.75 C48.5625 34.41 48.5625 35.07 48.5625 35.75 C49.08328125 35.9975 49.6040625 36.245 50.140625 36.5 C53.27833017 38.11946073 56.29518153 39.91971451 59.3125 41.75 C59.91449219 42.10578125 60.51648438 42.4615625 61.13671875 42.828125 C62.64740096 43.74618131 64.10996595 44.74246193 65.5625 45.75 C65.5625 46.41 65.5625 47.07 65.5625 47.75 C67.5425 48.245 67.5425 48.245 69.5625 48.75 C69.5625 49.41 69.5625 50.07 69.5625 50.75 C43.4925 50.75 17.4225 50.75 -9.4375 50.75 C-9.4375 35.24 -9.4375 19.73 -9.4375 3.75 C-2.4375 -0.25 -2.4375 -0.25 0 0 Z " fill="#010101" transform="translate(292.4375,46.25)"/>
<path d="M0 0 C25.41 0 50.82 0 77 0 C77 0.99 77 1.98 77 3 C76.01 3.33 75.02 3.66 74 4 C73.67 4.66 73.34 5.32 73 6 C72.01 6 71.02 6 70 6 C70 6.66 70 7.32 70 8 C68.09625645 9.44963959 66.12532841 10.81184323 64.125 12.125 C62.48917969 13.21167969 62.48917969 13.21167969 60.8203125 14.3203125 C58 16 58 16 56 16 C56 16.66 56 17.32 56 18 C55.071875 18.495 54.14375 18.99 53.1875 19.5 C47.03102084 23.00542385 41.342377 27.35567695 35.79296875 31.74609375 C34 33 34 33 32 33 C32 33.66 32 34.32 32 35 C30.14956573 36.19820784 28.24209738 37.30894982 26.3125 38.375 C23.06765155 40.17373162 20.12491928 41.89957124 17.23046875 44.2265625 C15 46 15 46 13 46 C13 46.66 13 47.32 13 48 C12.01 48 11.02 48 10 48 C10 48.66 10 49.32 10 50 C8.375 50.75 8.375 50.75 6 51 C2.88818359 49.68261719 2.88818359 49.68261719 0 47 C-0.85792713 43.4464827 -0.6982189 39.96533518 -0.5859375 36.328125 C-0.57989502 35.40821777 -0.57385254 34.48831055 -0.56762695 33.54052734 C-0.53627504 30.10989391 -0.45250543 26.67990111 -0.375 23.25 C-0.25125 15.5775 -0.1275 7.905 0 0 Z " fill="#000000" transform="translate(283,459)"/>
<path d="M0 0 C0.495 0.99 0.495 0.99 1 2 C2.65 2.33 4.3 2.66 6 3 C6 18.84 6 34.68 6 51 C-20.07 51 -46.14 51 -73 51 C-69.63803609 47.63803609 -66.32616526 44.9676404 -62.4375 42.3125 C-61.86064453 41.90966797 -61.28378906 41.50683594 -60.68945312 41.09179688 C-58.13881631 39.33547602 -55.95446787 37.98482262 -53 37 C-51.85915909 35.82560495 -50.71978153 34.64973291 -49.58984375 33.46484375 C-47.02615417 31.1027219 -44.11138143 29.30712501 -41.18359375 27.4296875 C-38.96519882 26.02773319 -38.96519882 26.02773319 -36.91015625 24.3203125 C-35 23 -35 23 -32 23 C-32 22.34 -32 21.68 -32 21 C-31.01 20.67 -30.02 20.34 -29 20 C-28.566875 19.54625 -28.13375 19.0925 -27.6875 18.625 C-26 17 -26 17 -23.125 15.625 C-19.86762846 14.13800223 -19.86762846 14.13800223 -17.4375 11.375 C-14.74116413 8.74780095 -13.55004539 8.67163021 -10 8 C-9.31513275 6.67592331 -8.65129797 5.34090759 -8 4 C-2.66666667 0 -2.66666667 0 0 0 Z " fill="#010101" transform="translate(270,46)"/>
<path d="M0 0 C4.13749475 0.39783603 5.31955216 1.38205216 8.25 4.3125 C9.68509063 6.08630767 11.03298183 7.90570467 12.37109375 9.75390625 C14.82651437 13.09756634 17.37734037 16.36119532 19.9375 19.625 C20.4133252 20.23585449 20.88915039 20.84670898 21.37939453 21.47607422 C23.54954989 24.24261985 25.74027912 26.85409312 28.25 29.3125 C29.32715059 30.46565392 30.38962976 31.63267573 31.4375 32.8125 C31.96730469 33.4003125 32.49710937 33.988125 33.04296875 34.59375 C34.25 36.3125 34.25 36.3125 34.25 39.3125 C35.24 39.3125 36.23 39.3125 37.25 39.3125 C37.476875 40.055 37.70375 40.7975 37.9375 41.5625 C39.05612738 44.43229716 39.05612738 44.43229716 41.515625 46.08203125 C44.64134191 48.63172319 46.93237539 51.53112978 49.3125 54.75 C52.83320354 59.45428385 52.83320354 59.45428385 56.57421875 63.984375 C58.25 66.3125 58.25 66.3125 58 70.125 C57.7525 71.176875 57.505 72.22875 57.25 73.3125 C54.1875 73.8125 54.1875 73.8125 50.25 73.3125 C47.4792016 70.96962414 45.24909747 68.33848948 43.25 65.3125 C43.25 64.6525 43.25 63.9925 43.25 63.3125 C42.59 63.3125 41.93 63.3125 41.25 63.3125 C39.5234375 61.4140625 39.5234375 61.4140625 37.625 58.9375 C36.99335938 58.12539062 36.36171875 57.31328125 35.7109375 56.4765625 C34.25 54.3125 34.25 54.3125 34.25 52.3125 C33.59 52.3125 32.93 52.3125 32.25 52.3125 C30.45460444 50.2227773 28.77938558 48.13407918 27.125 45.9375 C26.42310547 45.03257812 26.42310547 45.03257812 25.70703125 44.109375 C22.25 39.57391126 22.25 39.57391126 22.25 37.3125 C20.765 36.8175 20.765 36.8175 19.25 36.3125 C17.49609375 34.421875 17.49609375 34.421875 15.6875 32.0625 C14.78837891 30.91007812 14.78837891 30.91007812 13.87109375 29.734375 C12.25 27.3125 12.25 27.3125 11.22265625 24.578125 C10.90167969 23.83046875 10.58070313 23.0828125 10.25 22.3125 C8.765 21.8175 8.765 21.8175 7.25 21.3125 C7.25 20.6525 7.25 19.9925 7.25 19.3125 C6.59 19.3125 5.93 19.3125 5.25 19.3125 C4.755 17.3325 4.755 17.3325 4.25 15.3125 C3.59 15.3125 2.93 15.3125 2.25 15.3125 C2.25 14.6525 2.25 13.9925 2.25 13.3125 C-1.82144222 14.66964741 -3.38701845 17.39574536 -5.6015625 20.8515625 C-6.17003906 21.57472656 -6.17003906 21.57472656 -6.75 22.3125 C-7.41 22.3125 -8.07 22.3125 -8.75 22.3125 C-8.9975 22.85390625 -9.245 23.3953125 -9.5 23.953125 C-11.02988604 26.8407849 -12.84150997 29.41026018 -14.75 32.0625 C-15.45125 33.04734375 -16.1525 34.0321875 -16.875 35.046875 C-17.49375 35.79453125 -18.1125 36.5421875 -18.75 37.3125 C-19.41 37.3125 -20.07 37.3125 -20.75 37.3125 C-21.00394531 37.87453125 -21.25789063 38.4365625 -21.51953125 39.015625 C-22.91843211 41.62690661 -24.5722428 43.76116106 -26.4375 46.0625 C-27.49904297 47.37347656 -27.49904297 47.37347656 -28.58203125 48.7109375 C-31.08541031 51.71499237 -33.66527344 54.63849655 -36.3046875 57.5234375 C-37.79036499 59.36246531 -38.7756863 61.16522612 -39.75 63.3125 C-40.41 63.3125 -41.07 63.3125 -41.75 63.3125 C-41.976875 63.84875 -42.20375 64.385 -42.4375 64.9375 C-44.24538935 68.20891883 -46.06784602 70.68994945 -48.75 73.3125 C-52.2543228 73.72826711 -54.57121306 73.90189347 -57.75 72.3125 C-58.29386333 66.86574929 -56.91263763 64.48549211 -53.5625 60.25 C-52.78519531 59.24839844 -52.00789062 58.24679688 -51.20703125 57.21484375 C-48.84531681 54.42509204 -46.33278033 51.89528033 -43.75 49.3125 C-42.12533566 47.21107186 -40.60575844 45.06174886 -39.08203125 42.88671875 C-38.64246094 42.36722656 -38.20289063 41.84773438 -37.75 41.3125 C-37.09 41.3125 -36.43 41.3125 -35.75 41.3125 C-35.5025 40.57 -35.255 39.8275 -35 39.0625 C-33.62480659 36.03707449 -32.10627464 34.6308382 -29.75 32.3125 C-28.33558018 30.61952332 -26.9409284 28.9099078 -25.5625 27.1875 C-22.53085503 23.44515793 -19.43497559 19.80649143 -16.1875 16.25 C-12.36241565 12.0551799 -8.78953275 7.70801685 -5.28125 3.24609375 C-2.97865792 0.33848385 -2.97865792 0.33848385 0 0 Z " fill="#020202" transform="translate(278.75,176.6875)"/>
<path d="M0 0 C2.60307571 0.72544733 5.00860185 1.614957 7.49609375 2.66796875 C11.49126905 4.30852818 15.45022191 5.59295825 19.62109375 6.73046875 C21.1237602 7.22239712 22.6236381 7.72289947 24.12109375 8.23046875 C27.92713508 9.51655819 31.74929905 10.65954681 35.62109375 11.73046875 C35.62109375 12.39046875 35.62109375 13.05046875 35.62109375 13.73046875 C36.28109375 14.06046875 36.94109375 14.39046875 37.62109375 14.73046875 C37.06421875 15.09398438 36.50734375 15.4575 35.93359375 15.83203125 C26.6116928 21.14481118 26.6116928 21.14481118 19.62109375 28.73046875 C18.96109375 28.73046875 18.30109375 28.73046875 17.62109375 28.73046875 C17.37359375 29.30796875 17.12609375 29.88546875 16.87109375 30.48046875 C15.45509719 33.02926256 13.6738616 34.6777009 11.62109375 36.73046875 C11.29109375 37.72046875 10.96109375 38.71046875 10.62109375 39.73046875 C9.96109375 39.73046875 9.30109375 39.73046875 8.62109375 39.73046875 C8.29109375 41.05046875 7.96109375 42.37046875 7.62109375 43.73046875 C5.64109375 44.22546875 5.64109375 44.22546875 3.62109375 44.73046875 C3.39035156 43.72628906 3.15960938 42.72210938 2.921875 41.6875 C1.3204013 34.91081652 -0.37719051 28.387328 -3.00390625 21.91796875 C-7.48793481 10.6378344 -7.48793481 10.6378344 -7.37890625 4.73046875 C-4.08328097 -0.46263775 -4.08328097 -0.46263775 0 0 Z " fill="#010101" transform="translate(103.37890625,90.26953125)"/>
<path d="M0 0 C1.72276321 3.17990214 2.78839141 6.34796243 3.8125 9.8125 C5.12300679 14.17594769 6.49196618 18.50581442 7.96582031 22.81591797 C12.4094635 35.85389625 12.4094635 35.85389625 13 41 C11.625 43.625 11.625 43.625 9 45 C3.36082773 45 -0.71389806 43.39498354 -5.74609375 40.98828125 C-9.08688643 39.52342761 -12.44172005 38.77635199 -16 38 C-16 37.34 -16 36.68 -16 36 C-17.134375 35.896875 -18.26875 35.79375 -19.4375 35.6875 C-24.19397351 35.10889499 -28.51898346 33.64926303 -33 32 C-30.84938831 29.60124081 -29.10146625 28.04960572 -26.1875 26.625 C-18.16728611 22.5362635 -11.90885651 15.27305574 -6.3125 8.375 C-5.54550781 7.43398438 -4.77851563 6.49296875 -3.98828125 5.5234375 C-1.92509827 2.9735008 -1.92509827 2.9735008 0 0 Z " fill="#010101" transform="translate(451,421)"/>
<path d="M0 0 C3.27737399 4.91606099 1.87451452 10.3364774 1 16 C0.20982968 18.32892305 -0.64397254 19.93647995 -2 22 C-2.66 22 -3.32 22 -4 22 C-4.04898438 22.56847656 -4.09796875 23.13695313 -4.1484375 23.72265625 C-4.74042741 29.83648313 -6.05753955 35.17261865 -8 41 C-10.0625 41.6875 -10.0625 41.6875 -12 42 C-12.804375 40.7315625 -12.804375 40.7315625 -13.625 39.4375 C-15.75773657 36.20770829 -18.22653777 33.37479512 -20.828125 30.515625 C-22 29 -22 29 -22 27 C-22.78375 26.731875 -23.5675 26.46375 -24.375 26.1875 C-27 25 -27 25 -29 22 C-29.94875 21.525625 -30.8975 21.05125 -31.875 20.5625 C-34.9302039 19.03489805 -36.74042892 17.52029082 -39 15 C-38.40234375 12.625 -38.40234375 12.625 -37 10 C-34.12890625 8.8125 -34.12890625 8.8125 -30.5625 8 C-24.80454158 6.5487113 -19.75008079 4.6536728 -14.40234375 2.109375 C-9.64206693 -0.08886665 -5.17639137 -1.92265965 0 0 Z " fill="#020202" transform="translate(460,91)"/>
<path d="M0 0 C4.31392392 2.26409583 7.30548545 4.95822817 10 9 C10.57904931 12.60726272 10.95371507 16.21504763 11.33984375 19.84765625 C11.67653802 23.29041012 11.67653802 23.29041012 15 25 C14.67 25.66 14.34 26.32 14 27 C14.66 27.33 15.32 27.66 16 28 C14.845 27.896875 13.69 27.79375 12.5 27.6875 C8.87260262 27.65573645 7.09301239 28.36447847 4.1875 30.5 C0.04754183 33.34418386 -3.3911887 33.78124742 -8.3671875 33.56640625 C-12.56982133 32.66227879 -15.41988637 30.39905755 -18 27 C-18 26.34 -18 25.68 -18 25 C-18.99 24.67 -19.98 24.34 -21 24 C-21.13277344 23.35546875 -21.26554687 22.7109375 -21.40234375 22.046875 C-21.59957031 21.37140625 -21.79679687 20.6959375 -22 20 C-24.08034294 18.8624787 -24.08034294 18.8624787 -26.5625 18.25 C-27.38878906 18.00765625 -28.21507812 17.7653125 -29.06640625 17.515625 C-29.70449219 17.34546875 -30.34257812 17.1753125 -31 17 C-30.01 16.34 -29.02 15.68 -28 15 C-28.99 14.01 -29.98 13.02 -31 12 C-27.37 12.33 -23.74 12.66 -20 13 C-19.67 11.35 -19.34 9.7 -19 8 C-13.76131406 0.77910856 -8.84405058 -1.54903281 0 0 Z " fill="#484848" transform="translate(383,37)"/>
<path d="M0 0 C1.32 0.33 2.64 0.66 4 1 C3.67 6.94 3.34 12.88 3 19 C8.61 19.33 14.22 19.66 20 20 C19.0625 30.17857143 19.0625 30.17857143 18 34 C17.34 34 16.68 34 16 34 C16.02320313 34.62648437 16.04640625 35.25296875 16.0703125 35.8984375 C16.09738281 37.12433594 16.09738281 37.12433594 16.125 38.375 C16.14820313 39.18710938 16.17140625 39.99921875 16.1953125 40.8359375 C16 43 16 43 14 45 C10.25080636 45.50850946 6.46724813 45.41677012 2.6875 45.4375 C1.64142578 45.47037109 0.59535156 45.50324219 -0.48242188 45.53710938 C-5.20321418 45.57016394 -8.13254223 45.53398252 -12.2109375 43.0234375 C-14.63215285 38.93168929 -14.56613798 35.8427325 -14.3125 31.1875 C-14.28994141 30.39923828 -14.26738281 29.61097656 -14.24414062 28.79882812 C-14.18554161 26.86506071 -14.09586827 24.93227833 -14 23 C-13.01 22.67 -12.02 22.34 -11 22 C-10.67 21.01 -10.34 20.02 -10 19 C-9.34 19 -8.68 19 -8 19 C-7.690625 18.38125 -7.38125 17.7625 -7.0625 17.125 C-6.375 15.75 -5.6875 14.375 -5 13 C-4.34 13 -3.68 13 -3 13 C-2.67 11.02 -2.34 9.04 -2 7 C-1.34 7 -0.68 7 0 7 C0 4.69 0 2.38 0 0 Z " fill="#383838" transform="translate(394,141)"/>
<path d="M0 0 C2.56446145 3.41928194 2.29641484 6.8501922 2 11 C1.13479929 13.83156597 0.20040404 14.82996021 -2.0625 16.75 C-6.13324136 18.48223037 -9.65064279 18.94380265 -14 18 C-17.31932196 15.35809068 -18.65536892 13.9071817 -19.40234375 9.7734375 C-19.59601243 5.14088268 -19.15533738 1.60609986 -16 -2 C-10.6865004 -4.46698196 -4.4843073 -3.58744584 0 0 Z " fill="#060606" transform="translate(387,46)"/>
<path d="M0 0 C0.9590625 -0.02578125 1.918125 -0.0515625 2.90625 -0.078125 C5.5 0.25 5.5 0.25 7.28515625 1.4609375 C9.68396519 4.9935886 9.68627981 9.08531558 9.5 13.25 C8.1875 16.25 8.1875 16.25 5.5 18.25 C0.88702818 19.9274443 -2.90974175 20.86663075 -7.5625 19.0625 C-9.96843049 16.81179083 -10.43792553 15.12770408 -10.66796875 11.875 C-10.67441406 11.00875 -10.68085938 10.1425 -10.6875 9.25 C-10.70167969 8.38375 -10.71585937 7.5175 -10.73046875 6.625 C-10.5 4.25 -10.5 4.25 -8.5 1.25 C-5.45059327 0.23353109 -3.19630097 0.05155324 0 0 Z " fill="#040404" transform="translate(511.5,187.75)"/>
<path d="M0 0 C2.4375 1 2.4375 1 4 2 C4 2.99 4 3.98 4 5 C4.99 5.33 5.98 5.66 7 6 C7.66964286 13.76785714 7.66964286 13.76785714 5 17.5 C1.54788249 20.37676459 1.54788249 20.37676459 -2.0625 20.4375 C-3.361875 20.293125 -4.66125 20.14875 -6 20 C-6.763125 19.9175 -7.52625 19.835 -8.3125 19.75 C-10.89424368 18.60255836 -11.70509218 17.52507024 -13 15 C-13.56041277 10.03634407 -13.5325029 7.97625531 -11.125 3.5625 C-7.6866214 -0.58378008 -5.25884328 -0.27200914 0 0 Z " fill="#020202" transform="translate(60,166)"/>
<path d="M0 0 C0.66 0.33 1.32 0.66 2 1 C1.67 16.51 1.34 32.02 1 48 C27.07 48 53.14 48 80 48 C79.67 47.01 79.34 46.02 79 45 C80.485 45.495 80.485 45.495 82 46 C81.67 47.32 81.34 48.64 81 50 C75.76225846 50.73984299 70.7856974 51.10575929 65.48242188 51.02172852 C64.77899658 51.01212097 64.07557129 51.00251343 63.35083008 50.99261475 C61.05668958 50.95998587 58.7627618 50.91951984 56.46875 50.87890625 C54.86593343 50.85456968 53.26310927 50.83072797 51.66027832 50.80735779 C47.46483649 50.7448684 43.26953086 50.67570443 39.07421875 50.60510254 C34.78391665 50.53409934 30.49351885 50.46947456 26.203125 50.40429688 C17.80197728 50.27573835 9.40096279 50.14012129 1 50 C-0.20792747 46.06233723 -1.25100827 42.49535451 -1.24291992 38.36572266 C-1.24599655 37.52860748 -1.24907318 36.69149231 -1.25224304 35.82901001 C-1.24505753 34.94957733 -1.23787201 34.07014465 -1.23046875 33.1640625 C-1.23001053 32.24410492 -1.22955231 31.32414734 -1.2290802 30.37631226 C-1.22607422 28.44503478 -1.21823788 26.51375937 -1.20581055 24.58251953 C-1.18742893 21.61352049 -1.18530194 18.64483154 -1.18554688 15.67578125 C-1.18063581 13.79687228 -1.17480929 11.91796543 -1.16796875 10.0390625 C-1.16685593 9.14748444 -1.1657431 8.25590637 -1.16459656 7.33731079 C-1.11608717 1.11608717 -1.11608717 1.11608717 0 0 Z " fill="#2F2F2F" transform="translate(282,49)"/>
<path d="M0 0 C0.99 0.495 0.99 0.495 2 1 C2.1683645 6.56824529 2.32884077 12.13664285 2.48217773 17.70532227 C2.53537532 19.59763627 2.59068553 21.48989216 2.64819336 23.38208008 C2.73072897 26.11006137 2.8055337 28.83816496 2.87890625 31.56640625 C2.90594131 32.40522842 2.93297638 33.2440506 2.96083069 34.10829163 C3.07977841 38.84518884 2.97257564 43.33306334 2 48 C-0.48839325 50.48839325 -1.93089662 50.23503088 -5.32574463 50.24884033 C-6.06661316 50.24164978 -6.80748169 50.23445923 -7.57080078 50.22705078 C-8.35137848 50.22734283 -9.13195618 50.22763489 -9.93618774 50.22793579 C-12.52267478 50.22653968 -15.10887564 50.21096542 -17.6953125 50.1953125 C-19.48607221 50.19158337 -21.27683396 50.18873592 -23.06759644 50.18673706 C-27.78588472 50.17909275 -32.50405031 50.15943745 -37.22229004 50.1373291 C-42.03489522 50.11688782 -46.84752019 50.10773903 -51.66015625 50.09765625 C-61.10682481 50.07619228 -70.55340221 50.04204675 -80 50 C-80 49.67 -80 49.34 -80 49 C-75.83107445 47.98984509 -71.81203657 47.86403769 -67.54760742 47.88647461 C-66.44923553 47.88625557 -66.44923553 47.88625557 -65.32867432 47.8860321 C-62.92090845 47.88672587 -60.51322102 47.89449308 -58.10546875 47.90234375 C-56.43109682 47.90420983 -54.75672435 47.90563284 -53.08235168 47.90663147 C-48.68472779 47.91044165 -44.28713716 47.9202591 -39.88952637 47.93133545 C-34.60812314 47.94338473 -29.32670877 47.94795895 -24.04529572 47.95378876 C-16.03017405 47.96347168 -8.01512528 47.98263872 0 48 C0 32.16 0 16.32 0 0 Z " fill="#272727" transform="translate(276,49)"/>
<path d="M0 0 C4.13628689 0.72566437 5.80543652 1.46248601 8.5625 4.625 C9.66855701 8.42707099 9.8406757 10.71099412 8.6875 14.5 C5.87441857 17.31308143 3.70075415 17.66359887 -0.20703125 17.88671875 C-2.4375 17.625 -2.4375 17.625 -5.5 15.5625 C-7.78987135 12.09075957 -8.18568489 10.69845109 -7.4375 6.625 C-5.47445392 2.38482047 -4.68374833 0.85159061 0 0 Z " fill="#020202" transform="translate(383.4375,490.375)"/>
<path d="M0 0 C7.47450733 -0.15201804 14.94861683 -0.25716025 22.42431641 -0.32958984 C24.96776221 -0.35978007 27.51110378 -0.40073681 30.05419922 -0.45263672 C33.70826919 -0.52534744 37.36096416 -0.55943531 41.015625 -0.5859375 C42.15429016 -0.61690521 43.29295532 -0.64787292 44.46612549 -0.67977905 C47.43124158 -0.68104579 50.10263258 -0.63024151 53 0 C55.92942863 3.06182331 56.88559176 4.68430521 57.25 8.875 C57.1675 9.57625 57.085 10.2775 57 11 C56.505 9.02 56.505 9.02 56 7 C55.34 7 54.68 7 54 7 C53.505 5.02 53.505 5.02 53 3 C35.51 2.67 18.02 2.34 0 2 C0.33 30.71 0.66 59.42 1 89 C1.66 88.01 2.32 87.02 3 86 C3.66 86 4.32 86 5 86 C3.63016497 89.16115776 3.0109362 89.9927092 0 92 C-2.02073345 89.97926655 -1.20591174 85.84644142 -1.23706055 83.07128906 C-1.25017273 82.24036743 -1.26328491 81.4094458 -1.27679443 80.55334473 C-1.3187651 77.79081933 -1.3531734 75.02826478 -1.38671875 72.265625 C-1.41236356 70.35088927 -1.4381476 68.43615539 -1.46406555 66.52142334 C-1.51712861 62.49966986 -1.56603625 58.47788899 -1.61254883 54.45605469 C-1.67282035 49.30314364 -1.74705288 44.15053869 -1.82492352 38.99786758 C-1.88255384 35.03968795 -1.9308388 31.08143431 -1.976511 27.12310028 C-1.99991445 25.22366715 -2.02666761 23.32427222 -2.05682945 21.42493439 C-2.09803418 18.76539676 -2.12618925 16.10602226 -2.15112305 13.44628906 C-2.16609329 12.66167297 -2.18106354 11.87705688 -2.19648743 11.06866455 C-2.22048299 6.92287177 -1.87140742 3.72580651 0 0 Z " fill="#2A2A2A" transform="translate(460,280)"/>
<path d="M0 0 C3.22143346 0.5602493 3.90882618 0.9904676 5.875 3.5 C6.45703125 5.65625 6.45703125 5.65625 6.6875 8 C6.77644531 8.7734375 6.86539063 9.546875 6.95703125 10.34375 C6.875 12.5 6.875 12.5 4.875 15.5 C2.59765625 16.15234375 2.59765625 16.15234375 -0.0625 16.4375 C-1.37541016 16.60572266 -1.37541016 16.60572266 -2.71484375 16.77734375 C-5.125 16.5 -5.125 16.5 -6.91015625 14.71875 C-8.7140215 11.42423083 -8.64338292 9.19347833 -8.125 5.5 C-5.62044069 2.03781507 -4.25144029 0.68023045 0 0 Z " fill="#030303" transform="translate(183.125,48.5)"/>
<path d="M0 0 C0.886875 -0.01675781 1.77375 -0.03351563 2.6875 -0.05078125 C3.8321875 0.12904297 3.8321875 0.12904297 5 0.3125 C7.45811625 3.99967438 7.31118164 5.95595704 7 10.3125 C5 13.3125 5 13.3125 1.1875 14.3125 C-2.32292527 14.61998251 -2.92121858 14.36394909 -6.0625 12.3125 C-8 9.3125 -8 9.3125 -7.9375 5.625 C-6.49766225 0.53757329 -4.99922449 0.02179894 0 0 Z " fill="#020202" transform="translate(499,382.6875)"/>
<path d="M0 0 C1.65 0 3.3 0 5 0 C5.11459026 7.41017023 4.91160286 14.64206267 4 22 C2.68 22 1.36 22 0 22 C0 14.74 0 7.48 0 0 Z " fill="#393939" transform="translate(368,163)"/>
<path d="M0 0 C2.31 0 4.62 0 7 0 C7 8.25 7 16.5 7 25 C5.02 25 3.04 25 1 25 C-1 23 -1 23 -1.24291992 20.76928711 C-1.23881104 19.8644458 -1.23470215 18.95960449 -1.23046875 18.02734375 C-1.22853516 17.04572266 -1.22660156 16.06410156 -1.22460938 15.05273438 C-1.21236328 14.02470703 -1.20011719 12.99667969 -1.1875 11.9375 C-1.18685547 10.90560547 -1.18621094 9.87371094 -1.18554688 8.81054688 C-1.14015997 1.14015997 -1.14015997 1.14015997 0 0 Z M1 2 C1 9.26 1 16.52 1 24 C2.32 24 3.64 24 5 24 C5.91160286 16.64206267 6.11459026 9.41017023 6 2 C4.35 2 2.7 2 1 2 Z " fill="#1B1B1B" transform="translate(367,161)"/>
<path d="M0 0 C2.21915344 3.32873016 3.46288327 6.68760404 4.75 10.4375 C5.11931641 11.44006836 5.11931641 11.44006836 5.49609375 12.46289062 C7.19082119 17.40502932 7.19082119 17.40502932 6.23828125 20.375 C4.94595434 22.07092427 3.50579484 23.49420516 2 25 C0.73831075 28.78506776 0.25406128 32.08886182 1 36 C2.71513935 39.23026246 4.75707715 42.11624205 7 45 C2.65814613 43.0338775 0.14382242 40.28764485 -2 36 C-2.4019993 30.07051026 -1.88102918 26.22853444 1 21 C1.99 20.67 2.98 20.34 4 20 C3.71125 18.89140625 3.4225 17.7828125 3.125 16.640625 C2.74974938 15.17714757 2.37476322 13.71360232 2 12.25 C1.71382813 11.15558594 1.71382813 11.15558594 1.421875 10.0390625 C0.53484036 6.55428354 0 3.61876278 0 0 Z " fill="#2B2B2B" transform="translate(495,166)"/>
<path d="M0 0 C26.4 0 52.8 0 80 0 C79.34 1.32 78.68 2.64 78 4 C77.505 2.515 77.505 2.515 77 1 C51.59 1 26.18 1 0 1 C0 0.67 0 0.34 0 0 Z " fill="#111111" transform="translate(283,458)"/>
<path d="M0 0 C2.06277107 0.14194764 4.12521031 0.28872216 6.1875 0.4375 C7.91033203 0.55931641 7.91033203 0.55931641 9.66796875 0.68359375 C12.51598171 0.95403812 15.21210482 1.37521747 18 2 C18 2.66 18 3.32 18 4 C19.47339844 3.94199219 19.47339844 3.94199219 20.9765625 3.8828125 C25.29349572 3.88498728 29.2147923 4.79472507 33.375 5.875 C34.09816406 6.04902344 34.82132812 6.22304687 35.56640625 6.40234375 C37.39648572 6.86587232 39.20160751 7.42568818 41 8 C41.495 8.99 41.495 8.99 42 10 C39.4363053 9.71681868 36.87438474 9.42377507 34.3125 9.125 C33.2306543 9.00705078 33.2306543 9.00705078 32.12695312 8.88671875 C28.08449623 8.40679236 24.7594631 7.63708118 21 6 C19.46713087 5.64686462 17.92431854 5.33453754 16.375 5.0625 C10.82566551 4.01782107 5.42753304 2.54777558 0 1 C0 0.67 0 0.34 0 0 Z " fill="#303030" transform="translate(391,64)"/>
<path d="M0 0 C3.32451625 0.79383481 6.64521872 1.53226928 10 2.1875 C10.82371094 2.3525 11.64742188 2.5175 12.49609375 2.6875 C14.19542686 3.02683641 15.89600911 3.35996491 17.59765625 3.6875 C18.41105469 3.8525 19.22445313 4.0175 20.0625 4.1875 C20.79597656 4.331875 21.52945312 4.47625 22.28515625 4.625 C23.13400391 4.9034375 23.13400391 4.9034375 24 5.1875 C24.33 5.8475 24.66 6.5075 25 7.1875 C17.83318654 6.70861154 11.00143369 5.41395405 4.00390625 3.80859375 C1.02159732 3.08626036 1.02159732 3.08626036 -2 3.1875 C-1.34 3.5175 -0.68 3.8475 0 4.1875 C0 4.8475 0 5.5075 0 6.1875 C-2.62187494 5.13875002 -3.79371361 4.53818687 -5.25 2.0625 C-5.4975 1.44375 -5.745 0.825 -6 0.1875 C-3.48488179 -1.07005911 -2.68793008 -0.66718264 0 0 Z " fill="#353535" transform="translate(299,39.8125)"/>
<path d="M0 0 C2.88953666 4.33430499 4.11545211 9.06017818 5.6875 14 C6.02072266 15.010625 6.35394531 16.02125 6.69726562 17.0625 C7.00728516 18.031875 7.31730469 19.00125 7.63671875 20 C8.06537231 21.3303125 8.06537231 21.3303125 8.50268555 22.6875 C9 25 9 25 8 28 C7.34 27.67 6.68 27.34 6 27 C5.24073115 24.45526298 4.58964292 21.95929438 4 19.375 C3.66782967 17.96587118 3.33450428 16.55701411 3 15.1484375 C2.83757812 14.45459961 2.67515625 13.76076172 2.5078125 13.04589844 C2.02247348 11.09054221 1.45061524 9.15727196 0.875 7.2265625 C0 4 0 4 0 0 Z " fill="#393939" transform="translate(480,115)"/>
<path d="M0 0 C1.32 0.33 2.64 0.66 4 1 C4 1.66 4 2.32 4 3 C4.99 3.3403125 4.99 3.3403125 6 3.6875 C9.88658628 5.3878815 13.63679817 7.39623084 17 10 C17 10.66 17 11.32 17 12 C18.32 12.33 19.64 12.66 21 13 C20.67 13.66 20.34 14.32 20 15 C18.35 14.34 16.7 13.68 15 13 C15 12.34 15 11.68 15 11 C13.68 10.67 12.36 10.34 11 10 C11 9.34 11 8.68 11 8 C10.2575 7.71125 9.515 7.4225 8.75 7.125 C6.43260203 6.17697356 4.22082885 5.15154089 2 4 C2 3.34 2 2.68 2 2 C1.34 2 0.68 2 0 2 C0 1.34 0 0.68 0 0 Z " fill="#353535" transform="translate(298,50)"/>
<path d="M0 0 C2.96680942 2.96680942 3.53759451 6.47016225 4.6875 10.4375 C4.92533203 11.21416016 5.16316406 11.99082031 5.40820312 12.79101562 C5.62798828 13.53931641 5.84777344 14.28761719 6.07421875 15.05859375 C6.27619873 15.74236084 6.47817871 16.42612793 6.6862793 17.13061523 C7 19 7 19 6 22 C4.125 21.75 4.125 21.75 2 21 C0.75 18.9375 0.75 18.9375 0 17 C0.66 17 1.32 17 2 17 C2.33 17.66 2.66 18.32 3 19 C2.80083984 17.948125 2.80083984 17.948125 2.59765625 16.875 C1.55238798 11.2595442 0.6425281 5.67566491 0 0 Z " fill="#2E2E2E" transform="translate(517,244)"/>
<path d="M0 0 C2.21915344 3.32873016 3.46288327 6.68760404 4.75 10.4375 C5.11931641 11.44006836 5.11931641 11.44006836 5.49609375 12.46289062 C7.18665331 17.392875 7.18665331 17.392875 6.2734375 20.36328125 C4.74510664 22.32760834 3.06424067 23.62383956 1 25 C1.33 24.29875 1.66 23.5975 2 22.875 C4.00580415 17.10831308 2.69994089 12.6998018 1 7 C0.63049535 4.67212073 0.28647533 2.33954855 0 0 Z " fill="#2E2E2E" transform="translate(495,166)"/>
<path d="M0 0 C1.15468921 3.46406764 0.79287109 4.61242201 -0.14453125 8.0703125 C-0.40943359 9.04871094 -0.67433594 10.02710938 -0.94726562 11.03515625 C-1.23279297 12.05480469 -1.51832031 13.07445312 -1.8125 14.125 C-2.08642578 15.15238281 -2.36035156 16.17976563 -2.64257812 17.23828125 C-4.20517831 22.91160662 -4.20517831 22.91160662 -5 25 C-5.66 25.33 -6.32 25.66 -7 26 C-6.67 22.37 -6.34 18.74 -6 15 C-5.34 15 -4.68 15 -4 15 C-3.896875 14.01 -3.79375 13.02 -3.6875 12 C-3.09191294 7.71702837 -1.61404973 4.00003629 0 0 Z " fill="#2E2E2E" transform="translate(518,307)"/>
<path d="M0 0 C-8.29945798 3.85288706 -15.83586111 6.91526519 -25 8 C-24 6 -24 6 -21.41796875 4.9296875 C-20.35191406 4.58164063 -19.28585937 4.23359375 -18.1875 3.875 C-17.12917969 3.52179688 -16.07085937 3.16859375 -14.98046875 2.8046875 C-12 2 -12 2 -8 2 C-8 1.34 -8 0.68 -8 0 C-4.90645403 -0.99435406 -3.09720845 -0.87840996 0 0 Z " fill="#363636" transform="translate(448,93)"/>
<path d="M0 0 C0 4.04978838 -2.02320465 6.22322594 -4.3125 9.375 C-7.02778701 13.16860673 -9.66104159 16.95791653 -12 21 C-13 18 -13 18 -11.77734375 15.546875 C-8.14723479 10.0284928 -4.45074767 4.88496695 0 0 Z " fill="#2A2A2A" transform="translate(515,291)"/>
<path d="M0 0 C0.66 0 1.32 0 2 0 C-1.14863279 7.08442378 -7.5551879 14.7034586 -14 19 C-12.5 16 -12.5 16 -11 13 C-10.34 13 -9.68 13 -9 13 C-8.7421875 12.43796875 -8.484375 11.8759375 -8.21875 11.296875 C-6.85830223 8.73295421 -5.27211038 6.54773635 -3.5 4.25 C-2.58734375 3.05117187 -2.58734375 3.05117187 -1.65625 1.828125 C-1.1096875 1.22484375 -0.563125 0.6215625 0 0 Z " fill="#232323" transform="translate(269,201)"/>
<path d="M0 0 C3 1 3 1 5 4 C5.41757965 7.93438323 4.53772725 10.70845175 3 14.3125 C2.62875 15.19550781 2.2575 16.07851562 1.875 16.98828125 C1.441875 17.98408203 1.441875 17.98408203 1 19 C-0.46456853 14.60629442 0.39179635 10.59187323 0.84375 6.03125 C1.18710432 2.95357154 1.18710432 2.95357154 0 0 Z " fill="#323232" transform="translate(460,91)"/>
<path d="M0 0 C2.06277107 0.14194764 4.12521031 0.28872216 6.1875 0.4375 C7.91033203 0.55931641 7.91033203 0.55931641 9.66796875 0.68359375 C12.51598171 0.95403812 15.21210482 1.37521747 18 2 C18 2.99 18 3.98 18 5 C11.80759538 4.31195504 5.98044406 2.71951285 0 1 C0 0.67 0 0.34 0 0 Z " fill="#282828" transform="translate(391,64)"/>
<path d="M0 0 C1.3609623 2.7219246 0.70366248 4.1831957 0.0625 7.125 C-0.13214844 8.03507812 -0.32679688 8.94515625 -0.52734375 9.8828125 C-0.68332031 10.58148438 -0.83929688 11.28015625 -1 12 C-1.66 12 -2.32 12 -3 12 C-3.33 13.65 -3.66 15.3 -4 17 C-5.47551172 13.14312442 -4.46711142 10.61206371 -3.125 6.8125 C-2.75632812 5.74644531 -2.38765625 4.68039063 -2.0078125 3.58203125 C-1 1 -1 1 0 0 Z " fill="#323232" transform="translate(463,113)"/>
<path d="M0 0 C0.556875 0.226875 1.11375 0.45375 1.6875 0.6875 C0.32625 1.30625 0.32625 1.30625 -1.0625 1.9375 C-6.09888557 4.64939992 -8.50133989 7.25401967 -10.3125 12.6875 C-11.0625 11.0625 -11.0625 11.0625 -11.3125 8.6875 C-8.89018813 4.12237379 -5.74588136 -0.77647045 0 0 Z " fill="#393939" transform="translate(277.3125,22.3125)"/>
<path d="M0 0 C3 2 3 2 4.375 5.3125 C5 9 5 9 3.625 11.9375 C3.08875 12.618125 2.5525 13.29875 2 14 C1.34 13.67 0.68 13.34 0 13 C0.33 12.34 0.66 11.68 1 11 C0.91255632 9.12137125 0.75824458 7.24544819 0.5625 5.375 C0.46066406 4.37210938 0.35882813 3.36921875 0.25390625 2.3359375 C0.17011719 1.56507812 0.08632812 0.79421875 0 0 Z " fill="#303030" transform="translate(188,50)"/>
<path d="M0 0 C1.32 0.33 2.64 0.66 4 1 C3.67 4.63 3.34 8.26 3 12 C2.67 12 2.34 12 2 12 C1.67 9.69 1.34 7.38 1 5 C0.67 5 0.34 5 0 5 C0 3.35 0 1.7 0 0 Z " fill="#393939" transform="translate(394,141)"/>
<path d="M0 0 C-2.58075402 2.58075402 -4.50967981 3.24052758 -8.0625 3.3125 C-12 3 -12 3 -15 1 C-9.9752761 0.37470103 -5.07471573 -0.13012092 0 0 Z " fill="#2F2F2F" transform="translate(415,99)"/>
<path d="M0 0 C2.28814723 2.28814723 2.75451161 3.80751622 3.6875 6.875 C3.95949219 7.73867187 4.23148437 8.60234375 4.51171875 9.4921875 C5.01692938 12.08694932 4.85561171 13.530785 4 16 C0.18211975 11.18615099 0.29932075 5.89352231 0 0 Z " fill="#353535" transform="translate(475,98)"/>
<path d="M0 0 C0.99 0.33 1.98 0.66 3 1 C0.24829249 3.9555377 -2.41970299 6.11563315 -6 8 C-6.66 8 -7.32 8 -8 8 C-7.67 7.01 -7.34 6.02 -7 5 C-4.4375 3.8125 -4.4375 3.8125 -2 3 C-2 2.34 -2 1.68 -2 1 C-1.34 0.67 -0.68 0.34 0 0 Z " fill="#2D2D2D" transform="translate(218,73)"/>
<path d="M0 0 C0.33 0 0.66 0 1 0 C1.33 3.63 1.66 7.26 2 11 C2.66 10.01 3.32 9.02 4 8 C4.66 8 5.32 8 6 8 C4.63016497 11.16115776 4.0109362 11.9927092 1 14 C0 13 0 13 -0.09765625 10.05859375 C-0.08605469 8.86363281 -0.07445312 7.66867187 -0.0625 6.4375 C-0.05347656 5.23996094 -0.04445313 4.04242188 -0.03515625 2.80859375 C-0.02355469 1.88175781 -0.01195312 0.95492188 0 0 Z " fill="#212121" transform="translate(459,358)"/>
<path d="M0 0 C0.66 0 1.32 0 2 0 C3.5078125 1.96875 3.5078125 1.96875 5.125 4.5 C5.66382813 5.3353125 6.20265625 6.170625 6.7578125 7.03125 C7.16773438 7.6809375 7.57765625 8.330625 8 9 C7.67 9.66 7.34 10.32 7 11 C4.35247996 8.42215154 2.05567935 6.08351902 0 3 C0 2.01 0 1.02 0 0 Z " fill="#2C2C2C" transform="translate(487,224)"/>
<path d="M0 0 C2.3941161 2.3941161 2.29598923 3.03786311 2.3125 6.3125 C2.22902509 10.29361099 1.62871832 12.86575893 -1 16 C-1.66 16 -2.32 16 -3 16 C-1.125 11.125 -1.125 11.125 0 10 C0.07205511 8.31391034 0.08386068 6.62499341 0.0625 4.9375 C0.04896484 3.55884766 0.04896484 3.55884766 0.03515625 2.15234375 C0.02355469 1.44207031 0.01195312 0.73179687 0 0 Z " fill="#363636" transform="translate(520,191)"/>
<path d="M0 0 C2.125 0.375 2.125 0.375 4 1 C-0.49087169 3.99391446 -2.70517963 4.11177109 -8.125 4.0625 C-9.40632813 4.05347656 -10.68765625 4.04445312 -12.0078125 4.03515625 C-13.48894531 4.01775391 -13.48894531 4.01775391 -15 4 C-15 3.67 -15 3.34 -15 3 C-13.62714844 2.92652344 -13.62714844 2.92652344 -12.2265625 2.8515625 C-11.03804688 2.77679688 -9.84953125 2.70203125 -8.625 2.625 C-7.44164062 2.55539063 -6.25828125 2.48578125 -5.0390625 2.4140625 C-1.89437681 2.29782654 -1.89437681 2.29782654 0 0 Z " fill="#303030" transform="translate(379,189)"/>
<path d="M0 0 C0.66 0.33 1.32 0.66 2 1 C-1.3 3.31 -4.6 5.62 -8 8 C-8.66 7.67 -9.32 7.34 -10 7 C-8.625 5.5 -8.625 5.5 -7 4 C-6.34 4 -5.68 4 -5 4 C-5 3.34 -5 2.68 -5 2 C-2.625 0.9375 -2.625 0.9375 0 0 Z " fill="#2C2D2C" transform="translate(258,46)"/>
<path d="M0 0 C-1.57725347 0.70133599 -3.16211333 1.385583 -4.75 2.0625 C-5.63171875 2.44535156 -6.5134375 2.82820313 -7.421875 3.22265625 C-10.15256309 4.04600008 -11.36901347 3.9773992 -14 3 C-9.66308049 -0.83650572 -5.49610097 -1.56354597 0 0 Z " fill="#333333" transform="translate(439,92)"/>
<path d="M0 0 C1.32 0.33 2.64 0.66 4 1 C3.195625 1.66 2.39125 2.32 1.5625 3 C-1.75148924 6.87979228 -1.74577025 9.00014825 -2 14 C-2.33 14 -2.66 14 -3 14 C-3.32374517 8.49633208 -3.53286034 4.56327794 0 0 Z " fill="#111111" transform="translate(371,44)"/>
<path d="M0 0 C4.66283606 3.51582826 7.72210402 6.03648545 9 12 C5.74483572 8.83525695 2.67991207 5.67247209 0 2 C0 1.34 0 0.68 0 0 Z " fill="#303030" transform="translate(440,123)"/>
<path d="M0 0 C4.99275057 1.27721526 7.57611908 3.17330957 11 7 C8 7 8 7 6 6 C6 5.34 6 4.68 6 4 C5.195625 3.71125 4.39125 3.4225 3.5625 3.125 C1 2 1 2 0 0 Z " fill="#303030" transform="translate(303,48)"/>
<path d="M0 0 C-2.46153846 4.8 -2.46153846 4.8 -5.1875 5.8125 C-5.785625 5.874375 -6.38375 5.93625 -7 6 C-7 5.34 -7 4.68 -7 4 C-6.01 3.67 -5.02 3.34 -4 3 C-3.67 2.34 -3.34 1.68 -3 1 C-4.32 0.67 -5.64 0.34 -7 0 C-4.3333581 -1.33332095 -2.83319697 -0.67102033 0 0 Z " fill="#2F2F2F" transform="translate(267,40)"/>
<path d="M0 0 C0.99 0 1.98 0 3 0 C3 0.66 3 1.32 3 2 C1.52999567 3.27400375 0.05484219 4.5435008 -1.46484375 5.7578125 C-3.09066342 7.07336124 -4.56202021 8.48213245 -6 10 C-4.63356852 6.01457486 -2.89890986 3.07460137 0 0 Z " fill="#242424" transform="translate(278,190)"/>
<path d="M0 0 C0.66 0.33 1.32 0.66 2 1 C1.38857603 8.45937249 1.38857603 8.45937249 -0.4375 11 C-2 12 -2 12 -4 12 C-2.125 8.125 -2.125 8.125 -1 7 C-0.63239269 4.67182036 -0.29758419 2.3381615 0 0 Z " fill="#2D2D2D" transform="translate(416,180)"/>
<path d="M0 0 C1.08667969 0.29197266 1.08667969 0.29197266 2.1953125 0.58984375 C2.74960938 0.74582031 3.30390625 0.90179688 3.875 1.0625 C3.875 1.3925 3.875 1.7225 3.875 2.0625 C2.6375 2.000625 1.4 1.93875 0.125 1.875 C-2.90711302 1.85887174 -3.94748296 1.95598977 -6.625 3.5625 C-7.12 4.0575 -7.615 4.5525 -8.125 5.0625 C-6.28836609 -0.05383732 -5.3996034 -1.48053642 0 0 Z " fill="#0C0C0C" transform="translate(209.125,505.9375)"/>
<path d="M0 0 C0.625 1.875 0.625 1.875 1 4 C-1 6 -1 6 -4.125 6.125 C-5.548125 6.063125 -5.548125 6.063125 -7 6 C-6.67 5.34 -6.34 4.68 -6 4 C-5.360625 3.855625 -4.72125 3.71125 -4.0625 3.5625 C-1.61789145 3.13834965 -1.61789145 3.13834965 0 0 Z " fill="#222222" transform="translate(500,371)"/>
<path d="M0 0 C1.32 0.33 2.64 0.66 4 1 C4 1.66 4 2.32 4 3 C5.32 3.66 6.64 4.32 8 5 C7.67 5.66 7.34 6.32 7 7 C4.5 5.625 4.5 5.625 2 4 C2 3.34 2 2.68 2 2 C1.34 2 0.68 2 0 2 C0 1.34 0 0.68 0 0 Z " fill="#2F2F2F" transform="translate(298,50)"/>
<path d="M0 0 C0.66 0.33 1.32 0.66 2 1 C-0.31 3.64 -2.62 6.28 -5 9 C-5.33 8.34 -5.66 7.68 -6 7 C-2.25 1.125 -2.25 1.125 0 0 Z " fill="#0E0E0E" transform="translate(39,346)"/>
<path d="M0 0 C3.96 1.98 3.96 1.98 8 4 C8 4.66 8 5.32 8 6 C4.65750371 5.40312566 2.53563658 4.26396123 0 2 C0 1.34 0 0.68 0 0 Z " fill="#1F1F1F" transform="translate(298,276)"/>
<path d="M0 0 C1.32 0.33 2.64 0.66 4 1 C4 1.99 4 2.98 4 4 C1.36 3.67 -1.28 3.34 -4 3 C-2.68 2.67 -1.36 2.34 0 2 C0 1.34 0 0.68 0 0 Z " fill="#080808" transform="translate(261,511)"/>
<path d="M0 0 C0.33 0.99 0.66 1.98 1 3 C0.01 4.485 0.01 4.485 -1 6 C-1.66 6 -2.32 6 -3 6 C-3.99 6.495 -3.99 6.495 -5 7 C-3.75023244 3.34683329 -3.32901247 2.21934164 0 0 Z " fill="#0A0A0A" transform="translate(520,295)"/>
<path d="M0 0 C0.66 1.32 1.32 2.64 2 4 C-0.97 6.475 -0.97 6.475 -4 9 C-2.80100302 5.9168649 -1.52299523 2.93720508 0 0 Z " fill="#404040" transform="translate(500,182)"/>
<path d="M0 0 C0.33 0.66 0.66 1.32 1 2 C1.66 2 2.32 2 3 2 C3.33 3.98 3.66 5.96 4 8 C3.01 7.67 2.02 7.34 1 7 C0.67 4.69 0.34 2.38 0 0 Z " fill="#2D2D2D" transform="translate(485,135)"/>
</svg>
